<svg xmlns="http://www.w3.org/2000/svg" width="11" height="13" viewBox="0 0 11 13" fill="none">
	<path d="M5.06044 0.880859C5.18586 0.880878 5.3069 0.932726 5.40062 1.02657C5.49434 1.12041 5.55422 1.24972 5.56889 1.38997L5.57248 1.45743V2.75473C5.57233 2.90168 5.52236 3.04303 5.43277 3.14989C5.34318 3.25675 5.22073 3.32106 5.09045 3.32967C4.96017 3.33828 4.83188 3.29055 4.7318 3.19623C4.63173 3.10191 4.56741 2.96811 4.55199 2.82219L4.54841 2.75473V2.03401H3.52434C3.39893 2.03403 3.27788 2.08587 3.18416 2.17972C3.09044 2.27356 3.03057 2.40287 3.0159 2.54312L3.01231 2.61058V6.07003H9.66874C9.9271 6.06994 10.1759 6.17981 10.3654 6.37763C10.5548 6.57545 10.6709 6.84659 10.6902 7.13669L10.6928 7.22318V8.9529C10.6928 9.80335 10.3661 10.5673 9.8459 11.0949L10.0947 11.5158C10.1678 11.6382 10.1964 11.7874 10.1748 11.9328C10.1531 12.0783 10.0828 12.2088 9.97824 12.2976C9.87372 12.3865 9.74294 12.4268 9.6128 12.4104C9.48266 12.394 9.36305 12.3221 9.27857 12.2094L9.24273 12.1558L8.96111 11.6813C8.74009 11.7663 8.50974 11.8167 8.27652 11.8312L8.13264 11.8358H3.01231C2.73031 11.8361 2.4502 11.7839 2.18333 11.6813L1.90222 12.1558C1.82981 12.2783 1.71851 12.365 1.59115 12.3981C1.46379 12.4312 1.33001 12.4082 1.21722 12.3339C1.10443 12.2595 1.02117 12.1393 0.984497 11.9981C0.947827 11.8568 0.960527 11.7051 1.01999 11.574L1.0502 11.5164L1.29905 11.0955C1.04879 10.8422 0.845451 10.5357 0.700725 10.1936C0.555999 9.85155 0.47274 9.48065 0.455733 9.10223L0.452148 8.9529V7.22318C0.452067 6.93225 0.549643 6.65204 0.725316 6.43872C0.90099 6.2254 1.14178 6.09473 1.39941 6.07291L1.47621 6.07003H1.98825V2.61058C1.98822 2.16938 2.13793 1.74485 2.40672 1.42384C2.67552 1.10284 3.04309 0.909626 3.43423 0.883742L3.52434 0.880859H5.06044Z" fill="#6A704C" />
</svg>
