<svg xmlns="http://www.w3.org/2000/svg" width="11" height="13" viewBox="0 0 11 13" fill="none">
	<path d="M3.77469 11.67V9.81391C3.77469 9.34011 4.13732 8.95602 4.58465 8.95602H6.21984C6.43465 8.95602 6.64067 9.0464 6.79256 9.20729C6.94446 9.36818 7.02979 9.58638 7.02979 9.81391V11.67C7.02844 11.867 7.10136 12.0564 7.23239 12.1961C7.36342 12.3359 7.5417 12.4146 7.72768 12.4146H8.84328C9.3643 12.416 9.86445 12.1978 10.2334 11.808C10.6023 11.4183 10.8096 10.8891 10.8096 10.3373V5.04966C10.8096 4.60387 10.623 4.18102 10.3002 3.89501L6.50511 0.684672C5.84494 0.121789 4.89908 0.139963 4.25863 0.727836L0.550158 3.89501C0.212062 4.17259 0.00998594 4.59669 0 5.04966V10.3319C0 11.4821 0.880344 12.4146 1.9663 12.4146H3.05643C3.4427 12.4146 3.75661 12.0845 3.75941 11.6754L3.77469 11.67Z" fill="#6A704C" />
</svg>
