<svg xmlns="http://www.w3.org/2000/svg" width="11" height="14" viewBox="0 0 11 14" fill="none">
	<path d="M5.495 0C8.51161 0 10.9985 2.56637 10.9985 5.74155C10.9985 7.34156 10.4531 8.82699 9.55542 10.086C8.5651 11.4748 7.3445 12.6848 5.97059 13.6346C5.65614 13.8541 5.37235 13.8707 5.02725 13.6346C3.6455 12.6848 2.4249 11.4748 1.44307 10.086C0.544738 8.82699 0 7.34156 0 5.74155C0 2.56637 2.48687 0 5.495 0ZM5.495 3.98761C4.49751 3.98761 3.68399 4.86492 3.68399 5.92033C3.68399 6.98401 4.49751 7.8206 5.495 7.8206C6.49314 7.8206 7.31449 6.98401 7.31449 5.92033C7.31449 4.86492 6.49314 3.98761 5.495 3.98761Z" fill="#6A704C" />
</svg>
