<svg xmlns="http://www.w3.org/2000/svg" width="36" height="36" viewBox="0 0 36 36" fill="none">
	<path d="M24.9139 0.332031C31.1057 0.332031 35.2685 4.31993 35.2685 10.2493V25.4138C35.2685 31.3415 31.1057 35.3136 24.9139 35.3136H10.6239C4.44968 35.3136 0.286865 31.3415 0.286865 25.4138V10.2493C0.286865 4.31993 4.44968 0.332031 10.6239 0.332031H24.9139ZM19.2644 10.3368C18.7572 9.82954 17.9176 9.82954 17.4104 10.3368C16.9031 10.8615 16.9031 11.6836 17.4104 12.2083L21.7481 16.511H10.6414C9.90681 16.511 9.32961 17.1057 9.32961 17.8228C9.32961 18.5574 9.90681 19.1346 10.6414 19.1346H21.7481L17.4104 23.4549C17.1655 23.6997 17.0256 24.0496 17.0256 24.3819C17.0256 24.7125 17.1655 25.0465 17.4104 25.3089C17.9176 25.8161 18.7572 25.8161 19.2644 25.3089L25.8584 18.7498C26.3482 18.2601 26.3482 17.3856 25.8584 16.8958L19.2644 10.3368Z" fill="#6A704C" />
</svg>
