<svg xmlns="http://www.w3.org/2000/svg" width="47" height="47" viewBox="0 0 47 47" fill="none">
  <rect width="47" height="47" rx="8" fill="#FFFAF3"/>
  <rect x="0.5" y="0.5" width="46" height="46" rx="7.5" stroke="#304E3C" stroke-opacity="0.8"/>
  <path d="M20.28 13.5002C20.91 13.5193 21.52 13.6293 22.111 13.8303H22.17C22.21 13.8493 22.24 13.8703 22.26 13.8893C22.481 13.9603 22.69 14.0403 22.89 14.1503L23.27 14.3203C23.42 14.4003 23.6 14.5493 23.7 14.6103C23.8 14.6693 23.91 14.7303 24 14.7993C25.111 13.9503 26.46 13.4903 27.85 13.5002C28.481 13.5002 29.111 13.5893 29.71 13.7903C33.401 14.9903 34.731 19.0403 33.62 22.5803C32.99 24.3893 31.96 26.0403 30.611 27.3893C28.68 29.2593 26.561 30.9193 24.28 32.3493L24.03 32.5003L23.77 32.3393C21.481 30.9193 19.35 29.2593 17.401 27.3793C16.061 26.0303 15.03 24.3893 14.39 22.5803C13.26 19.0403 14.59 14.9903 18.321 13.7693C18.611 13.6693 18.91 13.5993 19.21 13.5603H19.33C19.611 13.5193 19.89 13.5002 20.17 13.5002H20.28ZM29.19 16.6603C28.78 16.5193 28.33 16.7403 28.18 17.1603C28.04 17.5803 28.26 18.0403 28.68 18.1893C29.321 18.4293 29.75 19.0603 29.75 19.7593V19.7903C29.731 20.0193 29.8 20.2403 29.94 20.4103C30.08 20.5803 30.29 20.6793 30.51 20.7003C30.92 20.6893 31.27 20.3603 31.3 19.9393V19.8203C31.33 18.4193 30.481 17.1503 29.19 16.6603Z" fill="#304E3C"/>
</svg>