<svg xmlns="http://www.w3.org/2000/svg" width="47" height="47" viewBox="0 0 47 47" fill="none">
  <rect width="47" height="47" rx="8" fill="#FFFAF3"/>
  <rect x="0.5" y="0.5" width="46" height="46" rx="7.5" stroke="#304E3C" stroke-opacity="0.8"/>
  <path d="M14 24.2875C14 21.8758 15.8779 19.8963 18.2312 19.7851L18.44 19.7802H23.23V25.8849C23.23 26.3224 23.57 26.6683 24 26.6683C24.385 26.6683 24.7112 26.3776 24.7629 25.9922L24.77 25.8849V19.7802H29.55C31.93 19.7802 33.8853 21.6909 33.9951 24.0945L34 24.3078V29.2628C34 31.6843 32.1221 33.6641 29.7688 33.7753L29.56 33.7802H18.45C16.0603 33.7802 14.1141 31.8599 14.0048 29.4651L14 29.2526V24.2875ZM20.5502 17.24C20.2684 16.9673 20.2428 16.5375 20.4658 16.2362L20.5402 16.15L23.4502 13.23C23.6002 13.08 23.7902 13 24.0002 13C24.1602 13 24.3202 13.0512 24.4495 13.1485L24.5402 13.23L27.4502 16.15C27.6002 16.3 27.6802 16.5 27.6802 16.69C27.6802 16.89 27.6002 17.09 27.4502 17.24C27.1775 17.5127 26.7477 17.5375 26.4464 17.3144L26.3602 17.24L24.7702 15.64L24.77 19.7802H23.23L23.2302 15.64L21.6402 17.24C21.3402 17.54 20.8502 17.54 20.5502 17.24Z" fill="#304E3C"/>
</svg>