<svg xmlns="http://www.w3.org/2000/svg" width="35" height="35" viewBox="0 0 35 35" fill="none">
	<path d="M24.6271 0C30.8188 0 34.9816 3.9879 34.9816 9.91728V25.0818C34.9816 31.0094 30.8188 34.9816 24.6271 34.9816H10.3371C4.16281 34.9816 0 31.0094 0 25.0818V9.91728C0 3.9879 4.16281 0 10.3371 0H24.6271ZM18.9775 10.0047C18.4703 9.49751 17.6307 9.49751 17.1235 10.0047C16.6163 10.5295 16.6163 11.3515 17.1235 11.8763L21.4612 16.179H10.3546C9.61994 16.179 9.04275 16.7737 9.04275 17.4908C9.04275 18.2254 9.61994 18.8026 10.3546 18.8026H21.4612L17.1235 23.1228C16.8786 23.3677 16.7387 23.7175 16.7387 24.0499C16.7387 24.3804 16.8786 24.7145 17.1235 24.9769C17.6307 25.4841 18.4703 25.4841 18.9775 24.9769L25.5716 18.4178C26.0613 17.9281 26.0613 17.0535 25.5716 16.5638L18.9775 10.0047Z" fill="#6A704C" />
</svg>
