<svg xmlns="http://www.w3.org/2000/svg" width="35" height="36" viewBox="0 0 35 36" fill="black">
	<path d="M10.3729 0.644531C4.18121 0.644531 0.0183945 4.63243 0.0183945 10.5618V25.7263C0.0183945 31.654 4.18121 35.6261 10.3729 35.6261H24.6629C30.8372 35.6261 35 31.654 35 25.7263V10.5618C35 4.63243 30.8372 0.644531 24.6629 0.644531H10.3729ZM16.0225 10.6493C16.5297 10.142 17.3693 10.142 17.8765 10.6493C18.3837 11.174 18.3837 11.9961 17.8765 12.5208L13.5388 16.8235H24.6454C25.3801 16.8235 25.9573 17.4182 25.9573 18.1353C25.9573 18.8699 25.3801 19.4471 24.6454 19.4471H13.5388L17.8765 23.7674C18.1214 24.0122 18.2613 24.3621 18.2613 24.6944C18.2613 25.025 18.1214 25.359 17.8765 25.6214C17.3693 26.1286 16.5297 26.1286 16.0225 25.6214L9.42845 19.0623C8.9387 18.5726 8.9387 17.6981 9.42845 17.2083L16.0225 10.6493Z" fill="white" />
	<path d="M9.42845 19.0623C8.9387 18.5726 8.9387 17.6981 9.42845 17.2083L16.0225 10.6493C16.5297 10.142 17.3693 10.142 17.8765 10.6493C18.3837 11.174 18.3837 11.9961 17.8765 12.5208L13.5388 16.8235H24.6454C25.3801 16.8235 25.9573 17.4182 25.9573 18.1353C25.9573 18.8699 25.3801 19.4471 24.6454 19.4471H13.5388L17.8765 23.7674C18.1214 24.0122 18.2613 24.3621 18.2613 24.6944C18.2613 25.025 18.1214 25.359 17.8765 25.6214C17.3693 26.1286 16.5297 26.1286 16.0225 25.6214L9.42845 19.0623Z" fill="black" />
</svg>
