<?xml version="1.0" encoding="UTF-8" standalone="no"?><svg xmlns="http://www.w3.org/2000/svg" xmlns:xlink="http://www.w3.org/1999/xlink" clip-rule="evenodd" fill="#000000" fill-rule="evenodd" height="11036" image-rendering="optimizeQuality" preserveAspectRatio="xMidYMid meet" shape-rendering="geometricPrecision" text-rendering="geometricPrecision" version="1" viewBox="2691.0 1982.0 9618.0 11036.0" width="9618" zoomAndPan="magnify"><g><g><g id="change1_1"><path d="M3016 4626L7519 1982 12233 4741 12252 6446 7443 3668 4434 5469z" fill="#322e24"/></g><g id="change2_1"><path d="M2691 5086L2710 7883 7481 10604 10202 9071 10202 8324 9359 7902 7462 8937 4204 7078 4204 6025z" fill="#322e24"/></g><g id="change3_1"><path d="M10566 9608L11926 10470 7462 13018 2710 10240 2748 8515 7500 11313z" fill="#322e24"/></g><g id="change4_1"><path d="M4837 6005L4779 6676 5641 7136 7442 6063 10738 7998 10834 9148 12309 9972 12214 7098 7577 4453z" fill="#322e24"/></g></g></g></svg>