<?xml version="1.0" encoding="UTF-8" standalone="no"?><svg xmlns="http://www.w3.org/2000/svg" xmlns:xlink="http://www.w3.org/1999/xlink" fill="#322e24" height="128.4" preserveAspectRatio="xMidYMid meet" version="1" viewBox="0.0 -0.4 128.0 128.4" width="128" zoomAndPan="magnify"><g id="change1_1"><path d="M126,124h-2V21.9004002c0-2.1973-1.5469131-4.8779011-3.4531174-5.9863005c0,0-14.3925934-7.2109995-14.4218826-7.2255993 c-2.0312119-1.0176005-4.6855164-0.9141002-6.4385147,0.6395998l-6.7021027,5.9462996 C91.3349991,16.7362995,90,19.7031002,90,21.9004002v44.2392044c0,0,3.0282898-1.3759003,4-1.4892044v-42.75 c0-1.0596008,0.8417892-2.9277,1.6386871-3.6348L101,13.5098v51.8994026l4,1.8827972v-6.7080002l15,7.8935013v7.4794998 l-4.9404144-2.6006012C115.6376877,74.3378983,116,78.3711014,116,78.3711014l4,2.1044998v7.4794998l-4-2.1044998v4.5185013 l4,2.1054993v7.4794998l-4-2.1054993v4.5195999l4,2.1054001v7.4794998l-4-2.1054001v4.5195007l4,2.1044998V124h-8V79.8740005 c0-2.2080002-1.625-4.7509995-3.6299133-5.6797028L98.6298828,69.6875 c-0.9364929-0.4336014-2.1357956-0.6474991-3.3476944-0.6474991c-1.3828049,0-2.7821884,0.2783966-3.8241882,0.8251953 l-7.9160004,4.1514053C81.5858841,75.0429993,80,77.6660004,80,79.8740005V124h-4V13.9775 c0-2.2088995-1.5459137-4.9042997-3.4531097-6.0194998c0,0-12.4208908-7.2637-12.4218903-7.2646003 C58.1815872-0.4434,55.368187-0.1514,53.6864891,1.3369l-6.7021027,5.9785004C45.3358879,8.7852001,44,11.7686005,44,13.9775V124h-4 V32.8232002c0-2.2236004-1.5947113-4.8476009-3.561512-5.8603001c0,0-8.5049-4.3808994-8.5058994-4.3808994 c-1.5781002-0.8134003-3.6845894-0.7870998-5.2754002-0.0107002c-0.4326,0.2108994-0.9424,0.5-1.2841892,0.8417988 l-14.374999,12.780302C5.3417888,37.6669998,4,40.6621017,4,42.8857002V124H2c-1.1045113,0-2,0.8955002-2,2s0.8954887,2,2,2h124 c1.1044846,0,2-0.8955002,2-2S127.1044846,124,126,124z M23,124h-6.6318111L23,118.3896027V124z M23,113.1513977 l-12.7919998,10.8222046L10.2304888,124H8v-5.4247971l15-12.7490005V113.1513977z M23,100.5791016L8,113.3281021v-7.7509995 l15-12.7490005V100.5791016z M23,87.5811005L8,100.3291016v-7.7509995l15-12.7490005V87.5811005z M23,74.5820007L8,87.3311005 v-7.7519989l15-12.7480011V74.5820007z M23,61.5830002L8,74.3320007v-7.7509003l15-12.7490997V61.5830002z M23,48.5849991 L8,61.3330002v-7.7509995l15-12.7480011V48.5849991z M23,35.5858994L8,48.3349991v-5.4492989 c0-1.0839005,0.8515882-2.9873009,1.6562881-3.7031021L23,27.3183994V35.5858994z M72,124H60v-10.0781021l12,6.7490005V124z M72,116.0811005l-12-6.7490997v-7.4091034l12,6.7490005V116.0811005z M72,104.0830002l-12-6.75v-7.4092026l12,6.75V104.0830002z M72,92.0839996l-12-6.7490005v-7.4092026l12,6.7490005V92.0839996z M72,80.0849991l-12-6.7490997v-7.4090958l12,6.7489929 V80.0849991z M72,68.0868988l-12-6.75V53.9277l12,6.75V68.0868988z M72,56.0878983l-12-6.7489967v-7.4092026l12,6.7490005 V56.0878983z M72,44.0889015l-12-6.7490997v-7.4091015l12,6.7489986V44.0889015z M72,32.0908012l-12-6.7490005v-7.4102001l12,6.75 V32.0908012z M72,20.0918007l-12-6.7490005V5.2549l10.5272903,6.1562004C71.2020874,11.8057003,72,13.1962996,72,13.9775V20.0918007 z M93,73.5723038V124h-9V79.8740005c0-0.7246017,0.7587891-1.9785004,1.400383-2.3153992 M108,124H97V73.339798l9.6884842,4.4844055 C107.2772827,78.0967026,108,79.2266006,108,79.8740005V124z M120,63.9580002l-15-7.8945007v-7.4785004l15,7.8935013V63.9580002z M120,51.9599991l-15-7.8955002v-7.4785995l15,7.8936005V51.9599991z M120,39.9608994l-15-7.8945007v-7.4784985l15,7.8934994 V39.9608994z M120,27.9619007L105,20.0674v-7.4687996l13.6044846,6.8155003C119.2597885,19.8535004,120,21.1581993,120,21.9004002 V27.9619007z" fill="inherit"/></g></svg>