<?xml version="1.0" encoding="UTF-8" standalone="no"?><svg xmlns="http://www.w3.org/2000/svg" xmlns:xlink="http://www.w3.org/1999/xlink" fill="#322e24" height="270.4" preserveAspectRatio="xMidYMid meet" version="1" viewBox="143.9 114.8 212.2 270.4" width="212.2" zoomAndPan="magnify"><g id="change1_1"><path d="M 172.039062 300.582031 C 171.828125 300.351562 171.617188 300.113281 171.417969 299.882812 L 171.417969 300.582031 L 172.039062 300.582031"/><path d="M 250 336.203125 C 253.773438 336.203125 257.503906 335.996094 261.175781 335.59375 L 261.148438 354.023438 C 261.148438 361.878906 259.742188 367.757812 256.914062 371.691406 C 254.085938 375.613281 249.878906 377.578125 244.28125 377.578125 C 242.234375 377.578125 240.449219 377.210938 238.921875 376.464844 C 237.398438 375.722656 236.636719 374.910156 236.636719 374.027344 C 236.636719 373.695312 237.21875 373.113281 238.382812 372.28125 C 242.535156 369.351562 244.613281 366.03125 244.613281 362.320312 C 244.613281 358.648438 243.1875 355.617188 240.339844 353.21875 C 237.476562 350.832031 233.867188 349.628906 229.492188 349.628906 C 224.835938 349.628906 221.003906 350.960938 217.984375 353.640625 C 214.964844 356.308594 213.457031 359.691406 213.457031 363.773438 C 213.457031 370.324219 216.519531 375.53125 222.640625 379.386719 C 228.757812 383.25 237.105469 385.175781 247.691406 385.175781 C 255.890625 385.175781 263.144531 384.140625 269.464844 382.074219 C 275.777344 380.007812 280.8125 377.046875 284.585938 373.1875 C 287.242188 370.445312 289.121094 367.203125 290.234375 363.464844 C 291.339844 359.71875 291.898438 354.070312 291.898438 346.496094 L 292.109375 291.242188 L 291.941406 291.398438 L 292.109375 179.449219 L 290.726562 179.449219 L 260.316406 300.582031 L 240.738281 300.582031 L 201.195312 179.449219 L 199.550781 179.449219 L 199.550781 276.554688 C 199.550781 282.585938 200.566406 286.476562 202.59375 288.222656 C 204.628906 289.957031 209.386719 291.0625 216.878906 291.523438 L 216.878906 300.582031 L 172.039062 300.582031 C 191.414062 322.484375 219.175781 336.203125 250 336.203125"/><path d="M 305.277344 165.242188 C 298.007812 165.242188 292.109375 159.347656 292.109375 152.074219 C 292.109375 144.800781 298.007812 138.90625 305.277344 138.90625 C 312.550781 138.90625 318.449219 144.800781 318.449219 152.074219 C 318.449219 159.347656 312.550781 165.242188 305.277344 165.242188 Z M 250 114.824219 C 191.40625 114.824219 143.90625 164.378906 143.90625 225.511719 C 143.90625 254.140625 154.320312 280.226562 171.417969 299.882812 L 171.417969 291.523438 C 178.914062 291.0625 183.660156 289.957031 185.65625 288.222656 C 187.660156 286.476562 188.664062 282.585938 188.664062 276.554688 L 188.664062 194.601562 C 188.664062 188.570312 187.660156 184.675781 185.65625 182.929688 C 183.660156 181.195312 178.914062 180.09375 171.417969 179.628906 L 171.417969 170.570312 L 228.105469 170.570312 L 256.671875 258.003906 L 283.410156 170.570312 L 340.621094 170.570312 L 340.621094 179.628906 C 333.078125 180.09375 328.28125 181.207031 326.253906 182.980469 C 324.21875 184.746094 323.203125 188.632812 323.203125 194.601562 L 322.792969 306.03125 C 343.300781 285.855469 356.09375 257.25 356.09375 225.511719 C 356.09375 164.378906 308.59375 114.824219 250 114.824219"/></g></svg>