<svg xmlns="http://www.w3.org/2000/svg" width="80" height="80" viewBox="0 0 80 80" fill="none">
  <circle cx="40" cy="40" r="40" fill="#FFF0DE"/>
  <path fill-rule="evenodd" clip-rule="evenodd" d="M54.62 34.825V40.5507C54.1783 40.5083 53.7307 40.4864 53.2779 40.4864C49.774 40.4864 46.5733 41.7847 44.1303 43.9263V41.3386C44.1303 39.2041 42.3894 37.4632 40.2549 37.4632H38.356C36.2215 37.4632 34.4806 39.2041 34.4806 41.3386V54.1959H26.936C25.3163 54.1959 23.9909 52.8707 23.9909 51.2509V34.825L39.3054 23.8429L54.62 34.825ZM20.0957 34.9585L39.3055 21.183L58.5153 34.9585C59.9611 35.9942 61.9728 35.6617 63.0084 34.2159C64.0441 32.7701 63.7116 30.7584 62.2658 29.7228L41.2378 14.6434C40.1435 13.8225 38.6013 13.7637 37.4302 14.6026L16.3452 29.7228C14.8994 30.7585 14.5669 32.7702 15.6026 34.2159C16.6383 35.6616 18.65 35.9942 20.0957 34.9585ZM61.5668 46.0812C59.4456 43.96 56.515 42.648 53.278 42.648C50.0409 42.648 47.1104 43.96 44.9892 46.0812C42.868 48.2024 41.5559 51.133 41.5559 54.37C41.5559 57.6071 42.868 60.5377 44.9892 62.6588C47.1104 64.78 50.0409 66.0921 53.278 66.0921C56.515 66.0921 59.4456 64.78 61.5668 62.6588C63.688 60.5377 65 57.6071 65 54.37C65 51.133 63.688 48.2024 61.5668 46.0812ZM49.6593 60.038C50.1678 60.5177 50.6329 60.9034 51.1959 61.1882C51.5162 61.3502 51.852 61.4723 52.2222 61.551L52.2422 62.381C52.2561 62.9755 52.7495 63.4462 53.344 63.4322C53.9385 63.4183 54.4092 62.9249 54.3953 62.3304L54.3759 61.5302C55.1606 61.349 55.8664 60.9786 56.4294 60.4758C57.2766 59.7193 57.8007 58.6676 57.8007 57.5003C57.8007 56.3329 57.2766 55.2813 56.4294 54.5248C55.6138 53.7965 54.4988 53.3459 53.2779 53.3459C52.5979 53.3459 51.9918 53.1084 51.5617 52.7243C51.1632 52.3684 50.9166 51.8831 50.9166 51.353C50.9166 50.8229 51.1632 50.3375 51.5617 49.9818C51.9948 49.5951 52.6011 49.3558 53.2779 49.3558C53.6097 49.3558 54.1215 49.4988 54.6074 49.7248C54.9894 49.9024 55.3115 50.1069 55.4323 50.2906C55.7587 50.7872 56.426 50.9253 56.9226 50.5988C57.4192 50.2724 57.5572 49.6051 57.2307 49.1085C56.871 48.5612 56.2172 48.0943 55.5108 47.7659C55.1348 47.591 54.7287 47.4488 54.3372 47.351L54.3135 46.3592C54.2996 45.7647 53.8062 45.294 53.2117 45.3079C52.6172 45.3219 52.1465 45.8153 52.1605 46.4098L52.1824 47.3258C51.3951 47.506 50.6884 47.8755 50.1263 48.3774C49.2791 49.1339 48.755 50.1856 48.755 51.3529C48.755 52.5203 49.2791 53.572 50.1263 54.3284C50.9419 55.0567 52.0569 55.5073 53.2779 55.5073C53.9579 55.5073 54.564 55.7449 54.9941 56.129C55.3927 56.4848 55.6392 56.9701 55.6392 57.5002C55.6392 58.0303 55.3927 58.5157 54.9941 58.8716C54.564 59.2557 53.9579 59.4932 53.2779 59.4932C52.808 59.4932 52.462 59.4126 52.1669 59.2632C51.8358 59.0957 51.5113 58.8209 51.1368 58.4677C50.7031 58.0597 50.0207 58.0805 49.6127 58.5142C49.2047 58.9479 49.2256 59.63 49.6593 60.038Z" fill="#E28B25"/>
</svg>