<svg xmlns="http://www.w3.org/2000/svg" width="80" height="80" viewBox="0 0 80 80" fill="none">
  <circle cx="40" cy="40" r="40" fill="#FFF0DE"/>
  <path fill-rule="evenodd" clip-rule="evenodd" d="M23.6742 37.1912V43.5327C25.0258 44.0814 26.2001 45.0216 27.0335 46.2511H35.4065V44.9437C35.4065 43.6129 36.4953 42.5239 37.8263 42.5239H42.9594C44.2902 42.5239 45.3792 43.6129 45.3792 44.9437V62.1274H51.9672C54.7964 62.1274 57.1113 59.8124 57.1113 56.9832V37.1913L59.2913 38.7752C60.9 39.941 63.1494 39.5818 64.3153 37.973C65.4812 36.3643 65.122 34.1149 63.5132 32.949L42.566 17.7298C41.3368 16.7976 39.5957 16.7325 38.2819 17.6846L17.2724 32.9489C15.6636 34.1147 15.3045 36.3641 16.4703 37.973C17.6361 39.5818 19.8855 39.9409 21.4943 38.7751L23.6742 37.1912ZM20.8759 44.5493C23.1828 44.5493 25.1789 45.8789 26.1404 47.8136H40.0094L42.0733 50.2486L40.8866 53.0365H38.7614L37.1535 50.8025L35.5456 53.0365L33.9377 50.8025L32.3298 53.0365H26.1403C25.1788 54.9712 23.1827 56.3008 20.8758 56.3008C17.6307 56.3008 15 53.6701 15 50.425C15.0001 47.1799 17.6308 44.5493 20.8759 44.5493ZM19.452 48.6075C20.4557 48.6075 21.2695 49.4212 21.2695 50.425C21.2695 51.4287 20.4558 52.2425 19.452 52.2425C18.4482 52.2425 17.6345 51.4287 17.6345 50.425C17.6345 49.4213 18.4482 48.6075 19.452 48.6075ZM23.6852 57.3128C25.0321 56.7634 26.2024 55.8251 27.0335 54.599H33.1305L33.9378 53.4772L35.4065 55.5177V62.1273H28.8184C26.0999 62.1273 23.8568 59.99 23.6852 57.3128Z" fill="#E28B25"/>
</svg>