<svg xmlns="http://www.w3.org/2000/svg" width="50" height="37" viewBox="0 0 50 37" fill="none">
  <path d="M39.0682 36.3813H30.9869H28.8108H28.3408V25.5415H31.886C32.785 25.5415 33.3163 24.5198 32.785 23.7842L25.8888 14.2419C25.4495 13.6289 24.5403 13.6289 24.1009 14.2419L17.2047 23.7842C16.6735 24.5198 17.1945 25.5415 18.1038 25.5415H21.649V36.3813H21.179H19.0029H9.63425C4.27054 36.085 0 31.0687 0 25.6334C0 21.8839 2.0331 18.6146 5.047 16.8472C4.77115 16.1013 4.62812 15.3045 4.62812 14.4667C4.62812 10.6355 7.72374 7.53984 11.555 7.53984C12.3825 7.53984 13.1794 7.68288 13.9252 7.95872C16.1422 3.25909 20.9236 0 26.4814 0C33.6739 0.0102166 39.5995 5.51696 40.2738 12.5358C45.801 13.4859 50 18.6044 50 24.3972C50 30.5885 45.1778 35.9522 39.0682 36.3813Z" fill="#AEAEAE"/>
</svg>