<svg xmlns="http://www.w3.org/2000/svg" width="18" height="19" viewBox="0 0 18 19" fill="none">
    <path d="M8.1 0C8.32044 3.06906e-05 8.5332 0.0854461 8.69794 0.240045C8.86267 0.394644 8.96791 0.607674 8.9937 0.83873L9 0.949864V3.08706C8.99975 3.32916 8.91191 3.56202 8.75444 3.73806C8.59696 3.91411 8.38174 4.02005 8.15274 4.03424C7.92375 4.04842 7.69826 3.96979 7.52235 3.8144C7.34644 3.65901 7.23339 3.4386 7.2063 3.19819L7.2 3.08706V1.89973H5.4C5.17956 1.89976 4.9668 1.98517 4.80206 2.13977C4.63733 2.29437 4.53209 2.5074 4.5063 2.73846L4.5 2.84959V8.54877H16.2C16.6541 8.54862 17.0915 8.72964 17.4245 9.05552C17.7575 9.38141 17.9614 9.82809 17.9955 10.306L18 10.4485V13.2981C18 14.6991 17.4258 15.9577 16.5114 16.8268L16.9488 17.5202C17.0772 17.7219 17.1275 17.9677 17.0895 18.2073C17.0514 18.4469 16.9277 18.662 16.744 18.8083C16.5603 18.9547 16.3304 19.0211 16.1017 18.9941C15.8729 18.9671 15.6627 18.8485 15.5142 18.6629L15.4512 18.5746L14.9562 17.7929C14.5677 17.9329 14.1628 18.016 13.7529 18.0398L13.5 18.0474H4.5C4.00432 18.0479 3.51198 17.9619 3.0429 17.7929L2.5488 18.5746C2.42151 18.7764 2.22589 18.9193 2.00203 18.9738C1.77817 19.0284 1.54302 18.9905 1.34477 18.868C1.14651 18.7454 1.00016 18.5475 0.935708 18.3148C0.871255 18.082 0.893577 17.8321 0.9981 17.6162L1.0512 17.5212L1.4886 16.8278C1.04871 16.4105 0.691308 15.9056 0.436923 15.3421C0.182539 14.7786 0.0361935 14.1675 0.00630006 13.5441L9.02412e-08 13.2981V10.4485C-0.000143621 9.96922 0.171366 9.5076 0.480147 9.15617C0.788929 8.80474 1.21216 8.58947 1.665 8.55352L1.8 8.54877H2.7V2.84959C2.69996 2.12275 2.96309 1.42336 3.43556 0.894524C3.90802 0.365691 4.5541 0.0473911 5.2416 0.00474943L5.4 0H8.1Z" fill="#304E3C"/>
</svg>