<svg xmlns="http://www.w3.org/2000/svg" width="46" height="46" viewBox="0 0 46 46" fill="none">
  <path d="M13.4975 46C5.42635 46 -4.54455e-07 40.8016 -1.13016e-06 33.0725L-2.85828e-06 13.3051C-3.53378e-06 5.57823 5.42635 0.400394 13.4975 0.400393L32.1249 0.400392C40.1733 0.400391 45.5996 5.57823 45.5996 13.3051L45.5996 33.0725C45.5996 40.8016 40.1733 46 32.1249 46L13.4975 46ZM20.8618 32.9585C21.523 33.6197 22.6174 33.6197 23.2786 32.9585C23.9398 32.2745 23.9398 31.2029 23.2786 30.5189L17.6242 24.9102L32.1021 24.9102C33.0597 24.9102 33.8121 24.135 33.8121 23.2002C33.8121 22.2426 33.0597 21.4902 32.1021 21.4902L17.6242 21.4902L23.2786 15.8587C23.5978 15.5395 23.7802 15.0835 23.7802 14.6503C23.7802 14.2194 23.5978 13.7839 23.2786 13.4419C22.6174 12.7807 21.523 12.7807 20.8618 13.4419L12.2663 21.9918C11.6279 22.6302 11.6279 23.7702 12.2663 24.4086L20.8618 32.9585Z" fill="#304E3C"/>
</svg>