<svg xmlns="http://www.w3.org/2000/svg" width="47" height="47" viewBox="0 0 47 47" fill="none">
  <rect width="47" height="47" rx="8" fill="#FFFAF3"/>
  <rect x="0.5" y="0.5" width="46" height="46" rx="7.5" stroke="#304E3C" stroke-opacity="0.8"/>
  <path d="M32.4354 15.582C31.9352 15.0686 31.1949 14.8773 30.5046 15.0787L14.408 19.7595C13.6797 19.9619 13.1635 20.5427 13.0244 21.2806C12.8824 22.0315 13.3786 22.9848 14.0268 23.3834L19.0599 26.4768C19.5761 26.7939 20.2424 26.7144 20.6696 26.2835L26.4329 20.4843C26.723 20.1823 27.2032 20.1823 27.4934 20.4843C27.7835 20.7762 27.7835 21.2493 27.4934 21.5513L21.72 27.3516C21.2918 27.7814 21.2118 28.4508 21.5269 28.9702L24.6022 34.0538C24.9623 34.6577 25.5826 35 26.2628 35C26.3429 35 26.4329 35 26.513 34.9899C27.2933 34.8893 27.9135 34.3558 28.1436 33.6008L32.9156 17.5248C33.1257 16.8403 32.9356 16.0954 32.4354 15.582Z" fill="#304E3C"/>
</svg>