<svg xmlns="http://www.w3.org/2000/svg" width="47" height="39" viewBox="0 0 47 39" fill="none">
  <path d="M23.314 7.3125C28.0571 7.3125 31.3687 10.0247 31.3687 13.9115V25.0885C31.3687 28.9753 28.0571 31.6875 23.314 31.6875H11.9712C7.22808 31.6875 3.9165 28.9753 3.9165 25.0885V13.9115C3.9165 10.0247 7.22808 7.3125 11.9712 7.3125H23.314ZM39.0842 11.1784C39.9439 10.8154 40.9525 10.8534 41.773 11.2823C42.5936 11.7096 43.0832 12.452 43.0832 13.2636V25.7374C43.0832 26.5507 42.5936 27.2914 41.773 27.7187C41.3246 27.9513 40.8232 28.0701 40.318 28.0701C39.8969 28.0701 39.4759 27.9876 39.0823 27.821L36.1819 26.6068C35.1088 26.1547 34.4429 25.2474 34.4429 24.2394V14.7599C34.4429 13.7503 35.1088 12.8429 36.1819 12.3942L39.0842 11.1784Z" fill="#304E3C"/>
</svg>