<svg xmlns="http://www.w3.org/2000/svg" width="84" height="48" viewBox="0 0 84 48" fill="none">
	<rect x="0.5" y="0.5" width="83" height="47" rx="0" fill="#fff" stroke="#304E3C" />
	<path d="M49.1792 11C51.1701 11 53.0853 11.7869 54.4942 13.1988C55.9046 14.6077 56.693 16.508 56.693 18.4975V30.2262C56.693 34.3684 53.3228 37.7237 49.1792 37.7237H34.5123C30.3687 37.7237 27 34.3684 27 30.2262V18.4975C27 14.3553 30.3538 11 34.5123 11H49.1792ZM50.8583 18.7202C50.5465 18.7038 50.2496 18.8093 50.0254 19.0171L43.3311 24.3618C42.47 25.076 41.2363 25.076 40.3618 24.3618L33.6809 19.0171C33.2192 18.6756 32.5808 18.7202 32.1963 19.121C31.7954 19.5219 31.7509 20.1603 32.0909 20.6057L32.2853 20.7987L39.0405 26.0692C39.8719 26.7224 40.88 27.0787 41.9356 27.0787C42.9882 27.0787 44.0141 26.7224 44.844 26.0692L51.5412 20.7096L51.66 20.5908C52.0148 20.1603 52.0148 19.5367 51.6437 19.1062C51.4373 18.885 51.1537 18.7499 50.8583 18.7202Z" 
	fill="#304e3c" />
</svg>
