<svg xmlns="http://www.w3.org/2000/svg" width="44" height="44" viewBox="0 0 44 44" fill="none">
	<path d="M31.548 0C39.006 0 44 5.236 44 13.024V31.0002C44 38.7662 39.006 44 31.548 44H12.474C5.016 44 0 38.7662 0 31.0002V13.024C0 5.236 5.016 0 12.474 0H31.548ZM28.622 15.3362C27.874 14.586 26.664 14.586 25.894 15.3362L22 19.25L18.084 15.3362C17.314 14.586 16.104 14.586 15.356 15.3362C14.608 16.0842 14.608 17.3162 15.356 18.062L19.272 21.9802L15.356 25.8742C14.608 26.6442 14.608 27.8542 15.356 28.6C15.73 28.974 16.236 29.1742 16.72 29.1742C17.226 29.1742 17.71 28.974 18.084 28.6L22 24.7082L25.916 28.6C26.29 28.9982 26.774 29.1742 27.258 29.1742C27.764 29.1742 28.248 28.974 28.622 28.6C29.37 27.8542 29.37 26.6442 28.622 25.8962L24.706 21.9802L28.622 18.062C29.37 17.3162 29.37 16.0842 28.622 15.3362Z" fill="#304E3C" fill-opacity="0.7" />
</svg>
