<svg xmlns="http://www.w3.org/2000/svg" width="28" height="29" viewBox="0 0 28 29" fill="none">
	<path fill-rule="evenodd" clip-rule="evenodd" d="M2.625 14.5C2.625 11.3754 3.82344 8.37881 5.95667 6.16941C8.08988 3.95999 10.9832 2.71875 14 2.71875C17.0168 2.71875 19.9101 3.95999 22.0434 6.16941C24.1766 8.37881 25.375 11.3754 25.375 14.5C25.375 17.6246 24.1766 20.6212 22.0434 22.8306C19.9101 25.0401 17.0168 26.2812 14 26.2812C10.9832 26.2812 8.08988 25.0401 5.95667 22.8306C3.82344 20.6212 2.625 17.6246 2.625 14.5ZM14 0C10.287 0 6.72602 1.52767 4.10051 4.24696C1.475 6.96623 0 10.6544 0 14.5C0 18.3456 1.475 22.0338 4.10051 24.7531C6.72602 27.4722 10.287 29 14 29C17.713 29 21.274 27.4722 23.8996 24.7531C26.5249 22.0338 28 18.3456 28 14.5C28 10.6544 26.5249 6.96623 23.8996 4.24696C21.274 1.52767 17.713 0 14 0ZM8.75 14.5C9.21414 14.5 9.65925 14.309 9.98744 13.9691C10.3156 13.6292 10.5 13.1682 10.5 12.6875C10.5 12.2068 10.3156 11.7458 9.98744 11.4059C9.65925 11.066 9.21414 10.875 8.75 10.875C8.28586 10.875 7.84075 11.066 7.51256 11.4059C7.18438 11.7458 7 12.2068 7 12.6875C7 13.1682 7.18438 13.6292 7.51256 13.9691C7.84075 14.309 8.28586 14.5 8.75 14.5ZM21 12.6875C21 13.1682 20.8155 13.6292 20.4874 13.9691C20.1593 14.309 19.7141 14.5 19.25 14.5C18.7859 14.5 18.3407 14.309 18.0126 13.9691C17.6845 13.6292 17.5 13.1682 17.5 12.6875C17.5 12.2068 17.6845 11.7458 18.0126 11.4059C18.3407 11.066 18.7859 10.875 19.25 10.875C19.7141 10.875 20.1593 11.066 20.4874 11.4059C20.8155 11.7458 21 12.2068 21 12.6875ZM9.31 17.4653C9.59235 17.2605 9.94112 17.179 10.281 17.2383C10.6209 17.2977 10.9246 17.4931 11.1265 17.7824L11.1388 17.7987C11.3187 18.0125 11.5246 18.2013 11.7513 18.3606C12.2133 18.6833 12.9465 19.0312 14 19.0312C15.0535 19.0312 15.785 18.6833 16.2487 18.3588C16.4754 18.1995 16.6813 18.0107 16.8612 17.7969L16.8735 17.7824C17.0754 17.4887 17.3817 17.2901 17.7249 17.2303C18.0682 17.1705 18.4205 17.2543 18.704 17.4634C18.9875 17.6725 19.1793 17.9898 19.2371 18.3452C19.2948 18.7008 19.214 19.0657 19.012 19.3593L17.9375 18.5781C19.012 19.3575 19.012 19.3593 19.0103 19.3593V19.3611L19.0085 19.3647L19.005 19.3702L18.9963 19.3829L18.9717 19.4173C18.8734 19.5538 18.7658 19.6827 18.6497 19.8034C18.3685 20.105 18.0577 20.3752 17.7222 20.6099C16.6201 21.3683 15.3231 21.7656 14 21.75C12.3445 21.75 11.109 21.1917 10.2795 20.6081C9.84058 20.3005 9.44433 19.9322 9.10175 19.5134C9.07673 19.4818 9.05223 19.4498 9.02825 19.4173L9.00375 19.3811L8.995 19.3702L8.9915 19.3647V19.3611H8.98975L10.0625 18.5781L8.988 19.3575C8.78843 19.0624 8.71006 18.6976 8.77011 18.3427C8.83017 17.988 9.0237 17.6724 9.30825 17.4653H9.31Z" fill="#304E3C" />
</svg>
