<svg xmlns="http://www.w3.org/2000/svg" width="52" height="51" viewBox="0 0 52 51" fill="none">
	<path d="M49.8608 24.6145C49.832 23.3247 49.0918 22.1644 47.9357 21.5825L20.9936 7.99574C19.7862 7.36854 18.3937 7.50005 17.3051 8.30116C16.1966 9.11581 15.6804 10.9801 16.045 12.3005L18.8775 22.5502C19.1683 23.6012 20.1433 24.314 21.2345 24.2708L35.9405 23.7054C36.6931 23.6636 37.3255 24.2529 37.337 25.0066C37.3609 25.747 36.7804 26.3701 36.0277 26.4118L21.3074 26.9662C20.216 27.0069 19.2892 27.7903 19.0669 28.861L16.8792 39.3293C16.6123 40.5666 17.0092 41.7784 17.9051 42.6131C18.0105 42.7113 18.1291 42.8218 18.2468 42.9068C19.398 43.7317 20.8695 43.7901 22.0989 43.0782L48.1093 27.7623C49.2259 27.1186 49.8896 25.9044 49.8608 24.6145Z" fill="#304E3C" />
</svg>
